<?xml version="1.0" encoding="UTF-8" standalone="no"?>
<!-- Created with Inkscape (http://www.inkscape.org/) -->

<svg
   xmlns:dc="http://purl.org/dc/elements/1.1/"
   xmlns:cc="http://creativecommons.org/ns#"
   xmlns:rdf="http://www.w3.org/1999/02/22-rdf-syntax-ns#"
   xmlns:svg="http://www.w3.org/2000/svg"
   xmlns="http://www.w3.org/2000/svg"
   xmlns:sodipodi="http://sodipodi.sourceforge.net/DTD/sodipodi-0.dtd"
   xmlns:inkscape="http://www.inkscape.org/namespaces/inkscape"
   width="210mm"
   height="297mm"
   viewBox="0 0 210 297"
   version="1.1"
   id="svg8"
   inkscape:version="0.92.3 (2405546, 2018-03-11)"
   sodipodi:docname="paper.svg">
  <defs
     id="defs2">
    <inkscape:path-effect
       effect="skeletal"
       id="path-effect44"
       is_visible="true"
       pattern="M 0,5 C 0,2.24 2.24,0 5,0 7.76,0 10,2.24 10,5 10,7.76 7.76,10 5,10 2.24,10 0,7.76 0,5 Z"
       copytype="single_stretched"
       prop_scale="0.26458333"
       scale_y_rel="false"
       spacing="0"
       normal_offset="0"
       tang_offset="0"
       prop_units="false"
       vertical_pattern="false"
       fuse_tolerance="0" />
    <inkscape:path-effect
       effect="simplify"
       id="path-effect42"
       is_visible="true"
       steps="1"
       threshold="0.00613319"
       smooth_angles="360"
       helper_size="0"
       simplify_individual_paths="false"
       simplify_just_coalesce="false"
       simplifyindividualpaths="false"
       simplifyJustCoalesce="false" />
  </defs>
  <sodipodi:namedview
     id="base"
     pagecolor="#ffffff"
     bordercolor="#666666"
     borderopacity="1.0"
     inkscape:pageopacity="0.0"
     inkscape:pageshadow="2"
     inkscape:zoom="1.01"
     inkscape:cx="184.20085"
     inkscape:cy="1065.7992"
     inkscape:document-units="mm"
     inkscape:current-layer="layer1"
     showgrid="false"
     inkscape:window-width="1920"
     inkscape:window-height="957"
     inkscape:window-x="0"
     inkscape:window-y="30"
     inkscape:window-maximized="1" />
  <metadata
     id="metadata5">
    <rdf:RDF>
      <cc:Work
         rdf:about="">
        <dc:format>image/svg+xml</dc:format>
        <dc:type
           rdf:resource="http://purl.org/dc/dcmitype/StillImage" />
        <dc:title></dc:title>
      </cc:Work>
    </rdf:RDF>
  </metadata>
  <g
     inkscape:label="Layer 1"
     inkscape:groupmode="layer"
     id="layer1">
    <path
       style="fill:#000000;stroke:none;stroke-width:0.26458332px;stroke-linecap:butt;stroke-linejoin:miter;stroke-opacity:1"
       d="m 3.1435643,6.4822606 c 0.00879,0.00852 0.7972098,-1.1911352 3.0707031,-2.720825 C 8.3914976,2.296515 12.314861,0.38350043 17.670411,0.30186874 22.540299,0.22838137 28.041667,1.3876677 34.251095,4.2267723 c 1.781777,0.8142211 3.818981,1.2460129 5.957593,1.2563502 1.958028,0.01076 3.931126,-0.3065956 6.020327,-0.7491318 3.606604,-0.7749732 8.102617,-2.1481456 12.434531,-1.8746001 5.338725,0.377006 9.693338,2.5073788 15.110302,4.2888734 2.313224,0.7524163 4.753152,1.4251122 7.217249,1.5635742 2.319231,0.1325042 4.73809,-0.2568493 6.865516,-1.3273294 4.447345,-2.2303615 9.527563,-4.1055032 14.941037,-4.52064 2.49177,-0.1908969 5.09993,-0.030538 7.61672,0.7093518 2.48097,0.7343325 4.8231,2.0717059 6.73946,3.9315415 2.90535,2.8099609 7.02483,4.6869619 11.17428,4.3516039 4.08535,-0.284971 8.00396,-2.4714796 11.12831,-5.5342908 3.93479,-3.8959542 9.33663,-6.67583607 15.20675,-6.95669656 5.62499,-0.23475337 11.2187,1.62651795 16.12364,4.64935456 2.1458,1.3139519 4.67761,2.0610201 7.21783,2.0147147 0,0 3e-5,-5e-7 3e-5,-5e-7 2.38147,-0.02688 4.77812,-0.6544031 7.26426,-1.320411 2.58519,-0.7050706 5.29544,-1.463109 8.12929,-1.7639559 3.1823,-0.3311303 6.4708,0.00716 9.56274,1.0835521 2.67918,0.9672967 4.78506,3.0164513 6.16773,5.395811 0,0 2e-5,3.03e-5 2e-5,3.03e-5 1.49176,2.5351171 2.34391,5.3965001 2.69266,8.2984301 0.34226,2.734199 0.25831,5.605812 -0.52946,8.364042 0,0 -1e-5,3.5e-5 -1e-5,3.5e-5 -0.5774,2.189033 -1.82996,4.470207 -4.08036,5.745658 0,0 -4e-5,2.1e-5 -4e-5,2.1e-5 -0.9239,0.515788 -1.77869,1.032301 -2.25432,1.730149 -0.29466,0.404496 -0.45991,0.923036 -0.40574,1.385095 0,0 0,2.1e-5 0,2.1e-5 0.0282,0.566733 0.32488,1.18416 0.67594,1.851018 0.44519,0.80562 1.00943,1.588615 1.59603,2.413085 1.34378,1.86264 2.7797,3.861097 3.69043,6.221805 0,0 1e-5,3.5e-5 1e-5,3.5e-5 1.01144,2.69082 1.01876,5.72993 -0.0356,8.449863 -2.03164,5.202657 -4.33121,10.505597 -5.91284,15.862453 -1.51606,5.171454 -2.45877,10.649274 -1.66565,15.938672 0.2513,1.753974 0.93592,3.461551 1.9152,4.995894 0.85814,1.348663 1.98012,2.644252 3.00685,4.140493 0,0 3e-5,3.3e-5 3e-5,3.3e-5 1.07572,1.553543 1.92485,3.350113 2.26262,5.327824 0.42754,2.76394 -0.0489,5.50181 -0.83046,8.01429 -1.40804,4.65036 -3.29931,9.0765 -4.37332,13.64898 0,0 -1e-5,4e-5 -1e-5,4e-5 -0.51096,2.18319 -0.85206,4.39309 -0.77557,6.56502 0.0721,2.09978 0.54275,4.19194 1.48839,6.03119 0,0 1e-5,3e-5 1e-5,3e-5 1.65136,3.20911 3.25708,6.65346 3.92109,10.44137 0.71277,4.30063 0.16874,8.62452 -0.73076,12.74777 -1.12579,5.25223 -2.91276,10.25889 -3.68703,15.36455 0,0 -1e-5,4e-5 -1e-5,4e-5 -0.37132,2.46114 -0.52578,4.9432 -0.18389,7.33225 0.33613,2.39101 1.19394,4.72034 2.5463,6.7119 0,0 2e-5,3e-5 2e-5,3e-5 1.10168,1.55684 1.95259,3.52456 1.86961,5.71854 -0.15255,1.78709 -0.89887,3.3295 -1.76533,4.60289 -0.96305,1.47105 -2.01541,2.77417 -2.85926,4.10859 0,0 -2e-5,4e-5 -2e-5,4e-5 -0.97595,1.54808 -1.74937,3.20697 -2.11262,4.93104 0,0 -10e-6,3e-5 -10e-6,3e-5 -0.4733,2.03967 0.0267,4.30572 0.97398,6.36332 0,0 2e-5,4e-5 2e-5,4e-5 1.02065,2.18863 2.53601,4.20795 4.05674,6.33753 1.43736,1.98032 2.96685,4.10061 3.94809,6.61351 0.92052,2.37394 0.97412,5.12281 -0.13572,7.55046 -2.16228,4.48222 -2.49869,9.74316 -2.45974,15.02425 0.0757,5.2702 0.38209,10.83037 -0.87844,16.29951 0,0 -1e-5,4e-5 -1e-5,4e-5 -0.53664,2.13998 -0.1727,4.53683 0.32014,6.96643 0.55788,2.6202 1.39565,5.25029 2.08341,7.99634 0,0 1e-5,4e-5 1e-5,4e-5 0.6111,2.33283 1.17268,4.91305 0.82061,7.61771 -0.15505,1.15236 -0.5647,2.3151 -1.2877,3.34336 -0.81444,1.10491 -1.89911,1.90785 -3.05841,2.4218 -0.40886,0.18268 -0.8212,0.3527 -1.23664,0.51068 -5.12544,1.94919 -10.69698,2.05765 -15.92701,1.56036 -5.8431,-0.52673 -11.48277,-1.6774 -17.05822,-1.90551 -11.20923,-0.46771 -22.12771,-2.3929 -32.78983,-1.63303 0,0 -4e-5,1e-5 -4e-5,1e-5 -4.31495,0.26846 -8.61297,2.17439 -13.16226,3.42007 -2.26607,0.63291 -4.64643,1.07656 -7.0941,1.04811 0,0 -5e-5,0 -5e-5,0 -2.7329,-0.0457 -5.41196,-0.73471 -7.8277,-1.91661 -4.4379,-2.20381 -9.69156,-2.51126 -14.756461,-2.01245 -5.14524,0.52729 -10.315491,1.75971 -15.679541,2.09601 -2.784043,0.14626 -5.437857,-0.58552 -7.818483,-1.56785 0,0 -3.9e-5,-2e-5 -3.9e-5,-2e-5 -2.546296,-1.03216 -4.92028,-2.32655 -7.244616,-3.49333 0,0 -3.6e-5,-2e-5 -3.6e-5,-2e-5 -2.163886,-1.07108 -4.252378,-2.10091 -6.40705,-2.5137 0,0 -3.5e-5,-1e-5 -3.5e-5,-1e-5 -1.787264,-0.33431 -3.690967,-0.15625 -5.035063,0.80933 -10.021772,6.86454 -22.214073,11.09888 -33.959035,8.80885 -4.816309,-0.95775 -9.479102,-2.72638 -13.5430089,-5.45482 -3.979096,-2.65572 -7.31058229,-6.42794 -8.8628298,-11.01004 -1.4795257,-4.42755 -2.4086994,-9.05467 -2.3616663,-13.72062 0.021176,-2.33055 0.3246863,-4.69165 1.0850979,-6.94839 0.7341803,-2.18005 1.95605728,-4.21762 3.65795449,-5.822 3.34656581,-3.10891 5.14033661,-7.75191 4.99212151,-12.24937 -0.1350146,-4.54779 -1.8880588,-8.98586 -4.5047106,-12.67281 -3.5738968,-5.01844 -5.5489236,-10.99904 -5.9446217,-16.94253 -0.2015874,-2.86193 0.020259,-5.79524 0.9638043,-8.55644 0.8744928,-2.56299 2.5016219,-4.89231 4.777578,-6.43265 0,0 2.53e-5,-2e-5 2.53e-5,-2e-5 2.3720721,-1.59772 4.3386889,-3.77895 5.2492883,-6.34075 0.8831258,-2.37804 0.9303131,-5.06172 0.6798699,-7.6828 -0.5778033,-5.79577 -2.6796109,-11.4934 -2.9636035,-17.47849 -0.5737492,-13.01472 1.5846824,-26.65572 2.9718178,-38.19045 0.6412105,-5.36015 1.7650837,-10.45221 1.91514,-15.42524 0.071496,-2.45512 -0.063501,-4.85019 -0.6973846,-7.08331 -0.6059698,-2.13869 -1.7047599,-4.106327 -3.2596306,-5.552464 -3.102957,-2.872668 -6.1671142,-5.82833 -7.7172266,-9.781946 -0.7561029,-1.977088 -0.9862766,-4.100167 -0.7408912,-6.132449 0.3354101,-2.707488 1.38235,-5.213085 2.61709812,-7.437723 C 0.95784178,72.179497 2.6921227,69.32905 4.2666594,66.51358 6.1234982,63.190457 7.7660197,60.04909 9.0248027,56.769358 10.121438,53.86343 10.98658,51.060188 10.612713,48.327081 10.464418,47.219005 10.079725,46.164908 9.420249,45.355018 8.6814121,44.419169 7.5782375,43.785835 6.4380042,43.381138 3.8002025,42.452913 1.7667344,40.47972 0.52421835,38.281131 -0.94634208,35.672808 -1.6202848,32.762515 -2.0470929,30.185392 -2.5701424,27.055863 -2.8053015,23.727659 -3.0122694,21.07365 -3.2665062,17.834844 -3.4425398,15.404971 -3.9725093,12.835548 -4.317767,11.170963 -4.4578404,9.6657973 -4.319902,8.2322173 -4.2145423,7.038035 -3.8937601,5.9746704 -3.1949742,5.2030675 c 0,0 5.1e-6,-5.4e-6 5.1e-6,-5.4e-6 0.7441027,-0.789686 1.816497,-0.9299956 2.59981082,-0.7915033 C 2.43871,4.9530624 2.8926977,6.8076281 3.1435722,6.4822667 3.1084235,6.5278514 2.0440459,5.0960886 -0.64713836,4.7473575 -1.3497023,4.6557906 -2.3014577,4.8121964 -2.8733862,5.4912229 c 0,0 -3.9e-6,4.7e-6 -3.9e-6,4.7e-6 -0.6003815,0.6782983 -0.8360739,1.6430009 -0.9289201,2.7849064 -0.09985,1.3692423 0.072316,2.805546 0.439836,4.427096 0.591575,2.601797 0.821528,5.079944 1.125868,8.303369 0.2514131,2.649037 0.5355115,5.963594 1.0915969,9.021455 0.46328865,2.526203 1.14260016,5.330913 2.5566434,7.743206 1.1679038,1.996693 3.0394477,3.782338 5.3858689,4.558707 1.2921885,0.427182 2.5725321,1.162259 3.517524,2.297634 0.818444,1.008062 1.302234,2.252803 1.476781,3.540598 0.407673,3.066797 -0.448453,6.09618 -1.573699,9.053374 -1.2654392,3.381191 -2.9083342,6.599146 -4.7511299,9.95672 -1.5667995,2.85707 -3.2784147,5.721804 -4.8999411,8.715992 -1.15410896,2.1452 -2.1250454,4.4839 -2.3919712,6.916756 -0.2035157,1.798688 0.012368,3.67647 0.6883244,5.396223 1.35271616,3.540067 4.2962048,6.260693 7.3831079,9.146184 1.8055579,1.679925 3.0762196,3.893172 3.7606609,6.289522 0.703187,2.4659 0.876042,5.03407 0.805548,7.59132 -0.13766,5.18362 -1.2374026,10.34642 -1.8383653,15.58723 -1.322155,11.58693 -3.40964,25.15837 -2.7750097,37.88599 0.2587169,5.57605 2.378856,11.2057 3.0296596,17.36021 0.3062924,2.7941 0.23469,5.78265 -0.7614806,8.60967 -1.1221563,3.06826 -3.3502467,5.60902 -6.0381216,7.403 0,0 -2.86e-5,2e-5 -2.86e-5,2e-5 -1.82926171,1.2114 -3.16608211,3.18353 -3.9197781,5.35949 -0.8289904,2.39788 -1.0018941,5.04382 -0.8226565,7.70132 0.3978736,5.55801 2.26004523,11.1513 5.5870503,15.78315 2.8670527,3.98151 4.7783324,8.82647 4.9670718,13.90614 0.176271,5.15178 -1.8398884,10.39177 -5.6880011,14.03136 -1.3838296,1.28998 -2.39364538,3.01079 -3.02691764,4.87183 -0.66372476,1.95186 -0.91935276,4.06845 -0.94382296,6.2179 -0.044612,4.32868 0.8552943,8.69138 2.27103633,12.93492 1.29961297,3.959 4.32474177,7.30513 7.93982537,9.75004 3.7464297,2.51736 8.1161457,4.15185 12.6665407,5.0591 10.830721,2.20501 22.369153,-1.93131 32.055814,-8.48075 2.092861,-1.3737 4.636086,-1.6874 6.950343,-1.20852 0,0 4.2e-5,10e-6 4.2e-5,10e-6 2.574052,0.52477 4.880076,1.625 7.053469,2.72383 0,0 3.6e-5,2e-5 3.6e-5,2e-5 2.381867,1.1877 4.69578,2.45092 7.061311,3.39864 0,0 3.6e-5,10e-6 3.6e-5,10e-6 2.2214,0.87265 4.505359,1.54046 6.702925,1.37755 5.069238,-0.31122 10.198969,-1.54636 15.572799,-2.10581 5.357345,-0.57793 11.077155,-0.19536 16.163265,2.24619 2.09855,1.01996 4.41039,1.61843 6.725,1.64675 0,0 4e-5,0 4e-5,0 2.09366,0.0382 4.22815,-0.37603 6.35864,-0.95932 4.294,-1.20059 8.76023,-3.13916 13.67578,-3.51817 0,0 5e-5,0 5e-5,0 11.08756,-0.76568 22.11228,1.15292 33.08386,1.61311 5.85401,0.25002 11.53831,1.40234 17.18495,1.90985 5.04319,0.42743 10.22237,0.3769 14.74528,-1.38335 0.36664,-0.14269 0.72885,-0.29657 1.08623,-0.46225 0.81931,-0.3856 1.55287,-0.90018 2.00515,-1.55747 0.43796,-0.58682 0.69092,-1.35973 0.81708,-2.17366 0.32776,-2.04885 -0.21579,-4.29113 -0.76726,-6.60068 0,0 -1e-5,-4e-5 -1e-5,-4e-5 -0.66073,-2.63879 -1.50509,-5.29953 -2.10276,-8.08639 -0.57044,-2.54576 -0.92938,-5.3294 -0.30648,-8.12316 0,0 1e-5,-4e-5 1e-5,-4e-5 1.19061,-4.96043 0.86362,-10.3114 0.81455,-15.66426 -0.0868,-5.42577 0.33855,-11.07503 2.72123,-16.18042 0.81225,-1.62701 0.73487,-3.68924 0.0598,-5.48869 -0.7793,-2.09184 -2.2016,-4.01715 -3.62506,-6.02438 -1.51195,-2.09752 -3.10635,-4.25559 -4.29224,-6.75034 0,0 -2e-5,-4e-5 -2e-5,-4e-5 -1.16458,-2.42478 -1.7248,-5.24638 -1.15793,-8.02573 0,0 10e-6,-5e-5 10e-6,-5e-5 0.46156,-2.0972 1.35253,-4.03702 2.46487,-5.77544 0,0 2e-5,-3e-5 2e-5,-3e-5 0.95536,-1.49711 2.0148,-2.80818 2.88216,-4.13491 0.71318,-1.14107 1.32176,-2.26346 1.35173,-3.34696 0.14066,-1.32314 -0.5617,-2.75573 -1.42588,-4.10716 0,0 -2e-5,-4e-5 -2e-5,-4e-5 -1.57962,-2.34602 -2.57309,-5.03929 -2.95572,-7.80337 -0.37193,-2.73063 -0.21218,-5.46051 0.19874,-8.07829 0,0 0,-4e-5 0,-4e-5 0.84767,-5.42527 2.64969,-10.47436 3.73577,-15.50875 0.84551,-3.99215 1.38978,-7.99362 0.72842,-11.79074 -0.54605,-3.34299 -2.06703,-6.5523 -3.66583,-9.7264 0,0 -2e-5,-4e-5 -2e-5,-4e-5 -1.12151,-2.22057 -1.67768,-4.66539 -1.74803,-7.08997 -0.07,-2.4778 0.29764,-4.90399 0.8543,-7.2169 0,0 1e-5,-4e-5 1e-5,-4e-5 1.162,-4.84412 3.07404,-9.31128 4.44064,-13.78911 0.69359,-2.34066 1.15154,-4.70747 0.77192,-6.9098 -0.231,-1.521783 -0.94533,-2.993593 -1.85919,-4.349585 0,0 -2e-5,-2.9e-5 -2e-5,-2.9e-5 -0.91914,-1.349369 -2.0532,-2.670172 -3.03939,-4.2108 -1.14605,-1.795164 -1.94357,-3.821536 -2.25582,-5.95003 -0.81595,-5.796037 0.16729,-11.607261 1.77989,-16.955975 1.65782,-5.535892 3.99241,-10.89193 6.02098,-16.034966 0.85889,-2.155042 0.85883,-4.643437 0.0453,-6.797457 0,0 -2e-5,-3e-5 -2e-5,-3e-5 -0.72893,-1.992088 -2.06786,-3.824375 -3.39561,-5.712548 -0.58614,-0.822068 -1.19345,-1.679234 -1.72417,-2.633724 -0.44563,-0.77002 -0.83138,-1.689805 -0.94349,-2.753893 0,0 0,-4.7e-5 0,-4.7e-5 -0.0768,-1.059365 0.2343,-2.0845 0.83978,-2.906626 0.85591,-1.116652 1.9649,-1.846827 3.02029,-2.377292 0,0 2e-5,-1.1e-5 2e-5,-1.1e-5 1.50524,-0.709863 2.40482,-2.540031 2.99863,-4.387067 0,0 0,-2.9e-5 0,-2.9e-5 0.70577,-2.388615 0.77652,-4.968973 0.48472,-7.484937 -0.323,-2.66049 -1.0688,-5.243073 -2.38029,-7.465595 0,0 -1e-5,-2.6e-5 -1e-5,-2.6e-5 -1.21656,-2.0319862 -2.93198,-3.7775327 -5.01459,-4.4820926 -2.77128,-0.9821818 -5.75408,-1.2981541 -8.64501,-1.0096809 -2.59782,0.2533061 -5.20418,0.9807214 -7.80642,1.6712437 -2.50066,0.6756058 -5.07125,1.316024 -7.77172,1.3589829 0,0 -3e-5,3e-7 -3e-5,3e-7 -2.95496,0.029203 -5.84273,-0.8316266 -8.29065,-2.3459372 -4.65088,-2.8604918 -9.8581,-4.6553972 -14.99708,-4.4314363 -5.31126,0.1956417 -10.32293,2.7621657 -14.00299,6.3495281 -3.36166,3.311153 -7.68006,5.640247 -12.28695,5.982549 -4.75681,0.307364 -9.29825,-1.768044 -12.47746,-4.9039515 -1.70023,-1.6743031 -3.80493,-2.8936701 -6.032,-3.5679302 C 107.6736,4.4479181 105.25724,4.2903451 102.91142,4.4470795 97.788705,4.7890828 92.876948,6.5748054 88.512261,8.7084358 86.102981,9.8846695 83.437544,10.299513 80.902565,10.128699 78.242289,9.9469573 75.695844,9.2309343 73.346468,8.4364849 67.823238,6.5884875 63.62319,4.4425652 58.576238,4.0714344 54.564506,3.7440679 50.134153,5.0616782 46.448771,5.7958171 44.321914,6.225842 42.265957,6.5263402 40.198012,6.4946137 37.925172,6.458393 35.75958,5.9655369 33.859465,5.0702573 27.777499,2.2024275 22.441382,0.97345294 17.674294,0.95700933 12.468406,0.93793334 8.5941126,2.6856962 6.3938393,4.0402272 4.1192154,5.4405298 3.18416,6.521595 3.1435643,6.4822606 Z"
       id="path40"
       inkscape:connector-curvature="0"
       inkscape:path-effect="#path-effect42;#path-effect44"
       inkscape:original-d="M 3.1435643,6.4822606 C 9.9877265,0.27953396 16.85708,-1.5155476 25.410478,0.19513201 c 2.130879,0.42617585 4.027767,2.12028729 6.025165,2.61963699 0.95636,0.2390902 1.761379,1.54766 2.619637,1.8337458 1.916623,0.6388743 3.978767,0.968752 6.025165,1.3098184 7.714396,1.285733 12.439619,-3.4247619 19.90924,-2.3576732 3.205512,0.45793 6.275117,1.7265581 9.430694,2.3576732 1.405835,0.2811672 2.790749,1.2916482 4.191418,1.5717822 2.676134,0.5352264 5.410811,1.1201048 8.120875,1.5717821 4.232026,0.7053377 6.466255,-1.3695275 10.216584,-2.6196369 4.435591,-1.4785302 10.810714,-3.5844495 15.717824,-2.3576732 6.38007,1.5950176 11.58615,6.0550416 17.2896,8.9067656 0.49607,0.248035 2.2279,0.131224 2.8816,0.261964 4.08548,0.817095 7.444,-3.4185417 10.47855,-5.2392742 4.74331,-2.8459853 9.56451,-5.9610912 14.408,-8.38283818 3.16378,-1.58188882 16.61022,5.26589968 20.69513,6.28712858 1.22196,0.305489 6.35433,1.3523397 7.59695,0.5239274 0.88976,-0.5931693 1.55291,-1.4070539 2.61964,-1.8337458 2.1411,-0.8564396 11.02352,-3.65697028 13.62211,-2.3576732 1.35197,0.6759863 9.5956,4.9773101 9.95462,4.9773101 0.26196,0.4366062 0.55819,0.8544066 0.78589,1.3098186 0.27799,0.555965 0.34406,20.0070137 0,20.6951317 -0.29752,0.595055 -0.79828,1.060249 -1.30981,1.571782 -0.68696,0.686953 -4.36273,2.015067 -3.6675,3.405529 1.94226,3.88451 5.67958,6.643813 7.59695,10.478547 0.18212,0.364229 0,1.436864 0,1.833746 0,3.434557 -1.05118,6.03847 -1.83374,9.16873 -0.4228,1.691176 -1.80906,3.257389 -2.09571,4.97731 -0.53566,3.213965 -1.36861,6.46348 -2.35768,9.430693 -0.2622,0.786624 2e-5,1.833691 -0.26196,2.619637 -0.32823,0.98469 -2.62858,12.827276 -2.35767,13.098185 0.48056,0.480567 0.74699,2.240968 1.04785,3.143564 0.60085,1.802533 2.09671,3.40702 3.14357,4.97731 1.30265,1.953982 4.59952,2.91193 5.50123,4.715347 0.12663,0.253247 0.12663,1.842458 0,2.095708 -1.52976,3.05953 -5.50123,10.93835 -5.50123,14.14604 0,1.20396 -1.04786,2.27766 -1.04786,3.92946 0,0.69857 0,1.39714 0,2.09571 0,0.17464 0.17464,0.52392 0,0.52392 -0.78104,0 -1.30982,4.7025 -1.30982,6.02517 0,6.91569 1.17265,8.37046 3.92946,13.88407 0.91491,1.82983 2.43536,2.77503 3.40553,4.71535 1.34172,2.68345 -1.45585,6.46325 -2.09571,8.38284 -1.5889,1.52168 -1.60011,6.60573 -2.35768,8.12087 -1.61072,3.22146 -3.59991,15.39665 -2.35767,19.12335 0.80262,2.40787 6.35776,15.31459 5.50124,17.02764 -0.49696,0.99392 -1.70761,1.44564 -2.35768,2.09571 -4.33214,4.33214 -7.61255,3.34312 -5.7632,10.74051 0.96177,3.84706 3.54022,7.34241 5.23928,10.74052 0.50462,1.00924 1.72572,1.50968 2.09571,2.61963 2.6902,8.07062 1.43106,12.06981 -1.83375,18.59943 -0.44906,2.51526 0.53019,5.03994 0.78589,7.59694 0.79196,7.9196 -1.27467,15.61238 -3.66749,22.79084 -0.6272,1.88161 0,5.04501 0,7.07302 0,1.47374 -1.73471,3.34165 -1.04786,4.71535 0.74154,1.48307 4.41951,5.27315 3.14357,6.54909 -0.65149,0.65149 -1.77468,0.3831 -2.61964,0.52393 -5.39288,0.89881 -11.61044,2.25635 -17.2896,1.30982 -1.89547,-0.31591 -3.84,-1.03508 -5.7632,-1.30982 -5.12044,-0.73149 -10.22107,-1.57178 -15.45586,-1.57178 -3.09969,0 -6.41132,1.1278 -9.43069,0.52393 -2.76235,-0.55247 -5.60266,-0.38873 -8.38284,-0.7859 -3.87362,-0.55337 -7.85777,-1.31004 -11.78837,-0.52392 -4.22273,0.84454 -6.38562,3.26371 -9.95462,4.45338 -3.52905,1.17635 -18.64257,-3.80926 -23.31477,-4.97731 -1.24266,-0.31067 -8.491788,-0.40029 -9.692655,0 -2.036206,0.67874 -4.621056,1.65562 -6.549093,2.61964 -1.287712,0.64385 -7.731029,0 -9.430693,0 -5.652889,0 -10.649055,-1.01737 -15.455858,-2.61964 -1.296128,-0.43204 -5.335986,-5.14256 -6.811056,-3.66749 -0.623524,0.62352 -2.227,1.4409 -3.405528,1.83374 -0.493762,0.16459 -0.858048,0.82197 -1.309818,1.04786 -1.75201,0.876 -3.578306,1.51232 -5.239274,2.61964 -1.541573,1.02771 -8.420025,2.37006 -10.740512,3.14356 -1.049496,0.34983 -2.82286,0 -3.929455,0 -2.324134,0 -6.170609,0.73741 -8.382839,0 -3.498145,-1.16605 -7.427989,-2.27319 -10.740511,-3.92946 -0.6388735,-0.31943 -1.3734695,-1.63543 -1.833746,-2.0957 -0.975044,-0.97505 -2.7413666,-1.55328 -3.4055281,-2.88161 -0.7850489,-1.57009 -3.3258732,-2.46032 -4.1914191,-4.19141 -0.84617042,-1.69235 -1.84034172,-3.41872 -2.619637,-4.97731 -0.4167403,-0.83349 -0.4060332,-15.42969 0,-16.24175 0.76835979,-1.53672 1.37144682,-4.51501 2.619637,-5.76321 1.6999325,-1.69993 5.0303848,-7.4942 5.7632013,-9.69265 1.4604437,-4.38133 -2.9702148,-13.10207 -4.4533828,-17.55157 -0.5502971,-1.65089 -2.22622654,-2.87974 -2.619637,-4.45338 -1.0745077,-4.29803 -1.9321546,-7.33361 -1.3098185,-12.3123 0.4224388,-3.37951 1.54230757,-11.75889 3.4055281,-13.62211 2.2766084,-2.27661 6.8110561,-7.18393 6.8110561,-10.74051 -3.1099978,-10.34779 -3.6674918,-21.01617 -3.6674918,-31.69761 0,-5.14834 -0.076297,-10.35395 0.5239274,-15.45586 0.343085,-2.91622 1.1752729,-5.79141 1.8337459,-8.6448 1.5547163,-6.7371 1.8574715,-15.07526 0.5239274,-21.74298 -0.2996842,-1.49842 0.1029886,-3.25554 -0.2619637,-4.71535 -0.727735,-2.91094 -1.71952,-7.220758 -3.9294555,-9.430694 -4.57943684,-4.579436 -9.2997495,-4.191265 -7.3349834,-12.05033 0.5407606,-2.163042 1.8969278,-3.793855 2.88160061,-5.763201 C 2.7855059,69.807701 10.598082,56.875929 7.8589109,48.658416 c -0.1540098,-0.46203 0.1170421,-1.103614 0,-1.571782 -1.2489392,-4.995757 -0.4017151,-4.715347 -4.9773102,-4.715347 -4.8323525,-9.08867 -6.5490924,-19.45578 -6.5490924,-29.601898 0,-1.595925 -0.7140974,-5.382861 0,-6.8110557 0.3279755,-0.6559511 2.1630861,-2.5522603 3.14356431,-1.5717821 0.15489559,0.1548955 0.4762801,0.8930492 0.78589109,1.0478547 1.5269385,0.7634693 1.4744881,-0.8282952 2.8816006,1.0478547 z" />
  </g>
</svg>
